<svg width="467" height="280" viewBox="0 0 467 280" fill="none" xmlns="http://www.w3.org/2000/svg">
<g clip-path="url(#clip0)">
<path d="M338.819 275.229C332.898 270.162 329.301 262.157 330.244 254.365C331.187 246.572 337.03 239.409 344.608 237.754C352.186 236.099 360.825 240.68 363.127 248.177C364.394 233.723 365.854 218.664 373.442 206.356C380.313 195.211 392.214 187.236 405.111 185.809C418.009 184.383 431.588 189.771 439.632 200.08C447.676 210.389 449.645 225.376 444.012 237.211C439.862 245.93 432.216 252.419 424.204 257.697C398.318 274.611 367.27 281.49 336.774 277.067L338.819 275.229Z" fill="#E2F3F5"/>
<path d="M428.268 190.449C417.174 199.388 406.996 209.386 397.882 220.297C383.619 237.315 372.077 256.396 363.659 276.874C363.043 278.368 365.495 279.018 366.104 277.541C379.878 244.26 401.868 214.926 430.061 192.223C431.327 191.203 429.523 189.438 428.268 190.449Z" fill="#3D5AF1"/>
<path d="M150.335 275.355C158.547 268.398 163.535 257.409 162.227 246.712C160.919 236.014 152.817 226.179 142.307 223.907C131.797 221.636 119.817 227.924 116.625 238.216C114.868 218.374 112.844 197.7 102.321 180.803C92.7922 165.502 76.2886 154.554 58.4025 152.596C40.5163 150.637 21.6845 158.034 10.5295 172.187C-0.625402 186.339 -3.35664 206.914 4.45599 223.162C10.2113 235.132 20.8146 244.04 31.9242 251.287C67.3676 274.407 111.335 284.05 153.171 277.878" fill="#E2F3F5"/>
<path d="M28.9435 158.619C44.3237 170.949 58.4334 184.739 71.0685 199.789C83.7056 214.824 94.8312 231.03 104.289 248.179C109.576 257.799 114.325 267.696 118.515 277.826C119.369 279.886 115.97 280.783 115.125 278.746C107.703 260.887 98.5202 243.788 87.709 227.693C76.9504 211.656 64.6365 196.684 50.9404 182.987C43.1938 175.244 35.0205 167.926 26.4575 161.066C24.7024 159.659 27.2028 157.224 28.9435 158.619L28.9435 158.619Z" fill="#3D5AF1"/>
<path d="M335.22 279.283H139.295V77.758C139.295 34.882 174.09 0 216.86 0H257.655C300.425 0 335.22 34.882 335.22 77.758V279.283Z" fill="#E2F3F5"/>
<path d="M294.425 279.283H139.295V77.758C139.252 61.329 144.441 45.3151 154.108 32.048C154.464 31.5611 154.819 31.0805 155.186 30.6052C159.861 24.4578 165.425 19.0439 171.694 14.5421C172.048 14.2838 172.404 14.03 172.765 13.7762C178.01 10.1371 183.684 7.16224 189.658 4.91929C190.013 4.7845 190.374 4.64944 190.735 4.5199C196.138 2.58702 201.739 1.26301 207.434 0.57231C207.787 0.52396 208.149 0.486126 208.512 0.448291C214.062 -0.146582 219.659 -0.146582 225.209 0.448291C225.57 0.486126 225.933 0.523956 226.29 0.572828C231.983 1.26357 237.582 2.58742 242.984 4.51993C243.345 4.64947 243.706 4.78452 244.062 4.91957C249.962 7.13423 255.57 10.0647 260.759 13.6456C261.12 13.8939 261.481 14.1477 261.836 14.4015C265.35 16.916 268.651 19.7173 271.704 22.7768C274.153 25.2308 276.435 27.8467 278.535 30.6068C278.9 31.0806 279.255 31.5611 279.611 32.0472C289.278 45.3145 294.467 61.3286 294.425 77.758V279.283Z" fill="#CCCCCC"/>
<path d="M281.81 189.148C286.554 189.148 290.399 185.294 290.399 180.538C290.399 175.783 286.554 171.929 281.81 171.929C277.067 171.929 273.222 175.783 273.222 180.538C273.222 185.294 277.067 189.148 281.81 189.148Z" fill="#3D5AF1"/>
<path d="M319.17 273.247H312.589L309.458 247.8L319.171 247.801L319.17 273.247Z" fill="#FFB8B8"/>
<path d="M307.888 271.362H320.58V279.373H299.897C299.897 278.321 300.104 277.279 300.505 276.307C300.907 275.335 301.495 274.452 302.237 273.708C302.98 272.964 303.86 272.374 304.83 271.972C305.799 271.569 306.839 271.362 307.888 271.362Z" fill="#2F2E41"/>
<path d="M351.914 273.247H345.333L342.202 247.8L351.915 247.801L351.914 273.247Z" fill="#FFB8B8"/>
<path d="M340.632 271.362H353.323V279.373H332.641C332.641 278.321 332.848 277.279 333.249 276.307C333.651 275.335 334.239 274.452 334.981 273.708C335.723 272.964 336.604 272.374 337.574 271.972C338.543 271.569 339.582 271.362 340.632 271.362Z" fill="#2F2E41"/>
<path d="M286.157 182.244C285.684 181.545 285.369 180.75 285.235 179.916C285.101 179.081 285.151 178.228 285.382 177.415C285.613 176.602 286.019 175.85 286.571 175.211C287.123 174.573 287.808 174.063 288.578 173.719L310.949 111.907L321.957 117.929L296.414 176.999C296.906 178.334 296.892 179.803 296.375 181.128C295.858 182.453 294.874 183.542 293.61 184.189C292.345 184.835 290.888 184.994 289.515 184.636C288.141 184.278 286.947 183.427 286.157 182.244Z" fill="#FFB8B8"/>
<path d="M348.552 193.859C347.821 193.438 347.19 192.862 346.705 192.171C346.22 191.48 345.891 190.691 345.743 189.859C345.595 189.027 345.631 188.173 345.848 187.356C346.065 186.539 346.458 185.78 346.999 185.132L340.069 119.746L352.596 120.32L355.476 184.636C356.502 185.619 357.132 186.946 357.247 188.364C357.362 189.782 356.954 191.194 356.101 192.33C355.247 193.467 354.007 194.251 352.616 194.532C351.225 194.814 349.779 194.574 348.552 193.859Z" fill="#FFB8B8"/>
<path d="M328.567 100.458C335.848 100.458 341.751 94.5404 341.751 87.241C341.751 79.9416 335.848 74.0243 328.567 74.0243C321.286 74.0243 315.383 79.9416 315.383 87.241C315.383 94.5404 321.286 100.458 328.567 100.458Z" fill="#FFB8B8"/>
<path d="M348.468 178.988H308.721L308.769 178.678C308.84 178.214 315.852 132.164 310.68 117.098C310.161 115.617 310.207 113.997 310.809 112.548C311.41 111.099 312.525 109.925 313.938 109.25H313.938C321.331 105.76 335.521 101.463 347.498 111.892C349.261 113.452 350.637 115.401 351.518 117.587C352.399 119.772 352.761 122.132 352.576 124.482L348.468 178.988Z" fill="#3D5AF1"/>
<path d="M316.354 138.969L298.46 135.33L306.848 115.403C307.35 113.473 308.595 111.822 310.31 110.811C312.025 109.8 314.07 109.512 315.996 110.011C317.923 110.509 319.573 111.753 320.586 113.47C321.598 115.187 321.89 117.236 321.398 119.169L316.354 138.969Z" fill="#3D5AF1"/>
<path d="M339.273 145.727L338.197 121.005C337.381 116.357 340.035 111.964 344.116 111.246C348.199 110.531 352.185 113.754 353.005 118.435L357.048 141.535L339.273 145.727Z" fill="#3D5AF1"/>
<path d="M347.145 176.028C353.541 200.446 354.239 231.492 352.513 265.356L343.925 264.28L328.358 199.705L319.77 265.356L310.107 264.818C307.221 229.286 304.41 198.782 309.034 178.719L347.145 176.028Z" fill="#2F2E41"/>
<path d="M337.254 97.4553C334.795 100.082 330.227 98.6718 329.906 95.0837C329.881 94.8052 329.883 94.5248 329.912 94.2466C330.077 92.6572 330.993 91.2143 330.774 89.5361C330.724 89.1185 330.569 88.7205 330.323 88.3798C328.363 85.7487 323.762 89.5566 321.912 87.1748C320.778 85.7143 322.112 83.4149 321.241 81.7825C320.092 79.6282 316.69 80.6909 314.556 79.5111C312.182 78.1983 312.324 74.5468 313.887 72.3258C315.793 69.6171 319.134 68.1718 322.434 67.9634C325.734 67.7551 329.011 68.6494 332.092 69.853C335.593 71.2206 339.064 73.1105 341.218 76.1961C343.837 79.9485 344.089 84.9932 342.779 89.3809C341.982 92.05 339.263 95.3106 337.254 97.4553Z" fill="#2F2E41"/>
<path d="M387.46 279.896H114.527C114.41 279.895 114.299 279.815 114.216 279.672C114.134 279.53 114.088 279.336 114.088 279.135C114.088 278.934 114.134 278.741 114.216 278.598C114.299 278.455 114.41 278.375 114.527 278.375H387.46C387.577 278.375 387.688 278.455 387.771 278.598C387.853 278.741 387.899 278.934 387.899 279.135C387.899 279.336 387.853 279.53 387.771 279.672C387.688 279.815 387.577 279.895 387.46 279.896Z" fill="#3F3D56"/>
<path d="M251.751 220.897H181.969C181.05 220.902 180.167 220.542 179.513 219.895C178.858 219.247 178.487 218.367 178.48 217.445V61.2999C178.487 60.3786 178.858 59.4978 179.513 58.8506C180.167 58.2034 181.05 57.8427 181.969 57.8477H251.751C252.67 57.8427 253.553 58.2034 254.207 58.8506C254.861 59.4978 255.233 60.3786 255.24 61.2999V217.445C255.233 218.367 254.861 219.247 254.207 219.895C253.553 220.542 252.67 220.902 251.751 220.897Z" fill="#E2F3F5"/>
<path d="M255.24 108.371H178.48V109.448H255.24V108.371Z" fill="#CCCCCC"/>
<path d="M255.508 169.776H178.748V170.852H255.508V169.776Z" fill="#CCCCCC"/>
<path d="M203.709 57.8477H202.635V221.435H203.709V57.8477Z" fill="#CCCCCC"/>
<path d="M230.548 57.8477H229.474V221.435H230.548V57.8477Z" fill="#CCCCCC"/>
</g>
<defs>
<clipPath id="clip0">
<rect width="467" height="279.896" fill="white"/>
</clipPath>
</defs>
</svg>
