<svg width="22" height="20" viewBox="0 0 22 20" fill="none" xmlns="http://www.w3.org/2000/svg">
<path d="M10.3808 0C6.43333 0 3.22168 2.99074 3.22168 6.66668C3.22168 7.7702 3.51796 8.86434 4.08119 9.8348L9.98928 19.7852C10.0679 19.9178 10.2178 20 10.3808 20C10.5437 20 10.6936 19.9178 10.7723 19.7852L16.6826 9.83152C17.2436 8.86434 17.5399 7.77016 17.5399 6.66664C17.5399 2.99074 14.3282 0 10.3808 0ZM10.3808 10C8.40706 10 6.80125 8.50465 6.80125 6.66668C6.80125 4.82871 8.40706 3.33336 10.3808 3.33336C12.3545 3.33336 13.9603 4.82871 13.9603 6.66668C13.9603 8.50465 12.3545 10 10.3808 10Z" fill="#E2F3F5"/>
</svg>
